# xmcd CD database file
#
# Track frame offsets:
#	150
#	27502
#	43290
#	51225
#	62275
#	78435
#	91485
#	105375
#	123327
#	145492
#	163212
#	179622
#	196422
#
# Disc length: 2997 seconds
#
# Revision: 1
# Processed by: cddbd v1.5.2PL0 Copyright (c) Steve Scherf et al.
# Submitted via: CDex 1.51
#
DISCID=b90bb30d
DTITLE=Сектор газа - Зловещие мертвецы
DYEAR=1990
DGENRE=Punk Rock
TTITLE0=Ой ты, травушка зеленая
TTITLE1=Сифон
TTITLE2=Ку-ку
TTITLE3=Русский мат
TTITLE4=Без вина
TTITLE5=Голубой
TTITLE6=Страх
TTITLE7=Нас ждут из темноты
TTITLE8=Вампиры
TTITLE9=Моя смерть
TTITLE10=Когда помрешь
TTITLE11=Черная магия
TTITLE12=Русский мат (remix)
EXTD=YEAR: 1990
EXTT0=
EXTT1=
EXTT2=
EXTT3=
EXTT4=
EXTT5=
EXTT6=
EXTT7=
EXTT8=
EXTT9=
EXTT10=
EXTT11=
EXTT12=
PLAYORDER=
